<svg xmlns="http://www.w3.org/2000/svg" width="416.64" height="79.464" viewBox="0 0 416.64 79.464">
  <g id="ttl" transform="translate(-751.58 -5466.965)">
    <g id="ja">
      <text id="導入事例" transform="translate(960.229 5541.429)" fill="#2e2e2e" font-size="15.996" font-family="NotoSansCJKjp-Medium, Noto Sans CJK JP" font-weight="500" letter-spacing="0.04em"><tspan x="-32.951" y="0">導入事例</tspan></text>
    </g>
    <g id="en">
      <g id="line">
        <g id="line-2" data-name="line">
          <circle id="楕円形_4_のコピー_2" data-name="楕円形 4 のコピー 2" cx="2.57" cy="2.57" r="2.57" transform="translate(751.58 5497.99)" fill="#550171"/>
          <circle id="楕円形_4_のコピー_3" data-name="楕円形 4 のコピー 3" cx="4.46" cy="4.46" r="4.46" transform="translate(766.12 5496.09)" fill="#550171"/>
          <circle id="楕円形_4_のコピー_4" data-name="楕円形 4 のコピー 4" cx="2.57" cy="2.57" r="2.57" transform="translate(783.02 5497.99)" fill="#550171"/>
        </g>
        <path id="Color_Overlay" data-name="Color Overlay" d="M766.12,5500.55a4.46,4.46,0,1,1,4.46,4.459A4.461,4.461,0,0,1,766.12,5500.55Zm16.9.01a2.57,2.57,0,1,1,2.57,2.57A2.57,2.57,0,0,1,783.02,5500.56Zm-31.44,0a2.57,2.57,0,1,1,2.57,2.57A2.57,2.57,0,0,1,751.58,5500.56Z" fill="#d4c9d0"/>
      </g>
      <g id="line-3" data-name="line">
        <g id="line-4" data-name="line">
          <circle id="楕円形_4_のコピー_2-2" data-name="楕円形 4 のコピー 2" cx="2.57" cy="2.57" r="2.57" transform="translate(1131.64 5497.99)" fill="#550171"/>
          <circle id="楕円形_4_のコピー_3-2" data-name="楕円形 4 のコピー 3" cx="4.46" cy="4.46" r="4.46" transform="translate(1146.18 5496.09)" fill="#550171"/>
          <circle id="楕円形_4_のコピー_4-2" data-name="楕円形 4 のコピー 4" cx="2.57" cy="2.57" r="2.57" transform="translate(1163.08 5497.99)" fill="#550171"/>
        </g>
        <path id="Color_Overlay-2" data-name="Color Overlay" d="M1146.18,5500.55a4.46,4.46,0,1,1,4.46,4.459A4.46,4.46,0,0,1,1146.18,5500.55Zm16.9.01a2.57,2.57,0,1,1,2.57,2.57A2.57,2.57,0,0,1,1163.079,5500.56Zm-31.439,0a2.57,2.57,0,1,1,2.57,2.57A2.57,2.57,0,0,1,1131.64,5500.56Z" fill="#d4c9d0"/>
      </g>
      <text id="CASE_STUDY" data-name="CASE STUDY" transform="translate(959.405 5513.965)" fill="#2e2e2e" font-size="47.987" font-family="Lato-HeavyItalic, Lato" font-weight="800" font-style="italic" letter-spacing="0.08em"><tspan x="-151.315" y="0">CASE STUDY</tspan></text>
    </g>
  </g>
</svg>
