<svg xmlns="http://www.w3.org/2000/svg" width="271.619" height="79.471" viewBox="0 0 271.619 79.471">
  <g id="ttl" transform="translate(-821.61 -4082.795)">
    <g id="ja">
      <text id="Kummanie_Online_Lessonの流れ" data-name="Kummanie Online Lessonの流れ" transform="translate(960.229 4157.266)" fill="#2e2e2e" font-size="17.792" font-family="Lato-Bold, Lato" font-weight="700" letter-spacing="0.04em"><tspan x="-132.583" y="0">Kummanie Online Lesson</tspan><tspan y="0" font-size="16" font-family="NotoSansCJKjp-Medium, Noto Sans CJK JP" font-weight="500">の流れ</tspan></text>
    </g>
    <g id="en">
      <g id="line">
        <g id="line-2" data-name="line">
          <circle id="楕円形_4_のコピー_2" data-name="楕円形 4 のコピー 2" cx="2.57" cy="2.57" r="2.57" transform="translate(821.61 4113.81)" fill="#550171"/>
          <circle id="楕円形_4_のコピー_3" data-name="楕円形 4 のコピー 3" cx="4.46" cy="4.46" r="4.46" transform="translate(836.15 4111.92)" fill="#550171"/>
          <circle id="楕円形_4_のコピー_4" data-name="楕円形 4 のコピー 4" cx="2.57" cy="2.57" r="2.57" transform="translate(853.05 4113.81)" fill="#550171"/>
        </g>
        <path id="Color_Overlay" data-name="Color Overlay" d="M836.15,4116.379a4.46,4.46,0,1,1,4.46,4.46A4.46,4.46,0,0,1,836.15,4116.379Zm16.9,0a2.57,2.57,0,1,1,2.57,2.571A2.57,2.57,0,0,1,853.05,4116.379Zm-31.441,0a2.57,2.57,0,1,1,2.57,2.571A2.57,2.57,0,0,1,821.61,4116.379Z" fill="#d4c9d0"/>
      </g>
      <g id="line-3" data-name="line">
        <g id="line-4" data-name="line">
          <circle id="楕円形_4_のコピー_2-2" data-name="楕円形 4 のコピー 2" cx="2.57" cy="2.57" r="2.57" transform="translate(1051.61 4113.81)" fill="#550171"/>
          <circle id="楕円形_4_のコピー_3-2" data-name="楕円形 4 のコピー 3" cx="4.46" cy="4.46" r="4.46" transform="translate(1066.15 4111.92)" fill="#550171"/>
          <circle id="楕円形_4_のコピー_4-2" data-name="楕円形 4 のコピー 4" cx="2.57" cy="2.57" r="2.57" transform="translate(1083.05 4113.81)" fill="#550171"/>
        </g>
        <path id="Color_Overlay-2" data-name="Color Overlay" d="M1066.15,4116.379a4.46,4.46,0,1,1,4.459,4.46A4.459,4.459,0,0,1,1066.15,4116.379Zm16.9,0a2.57,2.57,0,1,1,2.57,2.571A2.57,2.57,0,0,1,1083.05,4116.379Zm-31.441,0a2.57,2.57,0,1,1,2.57,2.571A2.57,2.57,0,0,1,1051.61,4116.379Z" fill="#d4c9d0"/>
      </g>
      <text id="FLOW" transform="translate(960.404 4129.795)" fill="#2e2e2e" font-size="48" font-family="Lato-HeavyItalic, Lato" font-weight="800" font-style="italic" letter-spacing="0.08em"><tspan x="-70.68" y="0">FLOW</tspan></text>
    </g>
  </g>
</svg>
